<svg width="18" height="18" viewBox="0 0 18 18" fill="none" xmlns="http://www.w3.org/2000/svg">
<path fill-rule="evenodd" clip-rule="evenodd" d="M3.98571 1.80005L4.48862 6.38249L6.16901 7.06227L5.83291 5.02294L3.98571 1.80005ZM7.31517 6.89183L8.77894 8.52162L11.5186 6.72823L16.0748 13.1717L17.1001 12.469L12.5592 6.0471L15.5634 4.08056L14.8172 3.04709L12.1247 2.81737L7.52427 6.07693L7.31517 6.89183ZM3.4804 8.42178L1.80005 6.72233L4.48868 7.742L3.4804 8.42178ZM5.79832 8.13008L3.40802 11.3649L4.75657 15.1216L8.69522 16.2L11.0855 12.9652L9.73696 9.20849L5.79832 8.13008ZM8.16943 13.2146L7.14433 9.7905L6.46094 12.5298L5.09415 14.5842L8.16943 13.2146Z" fill="#CDBE91"/>
</svg>