<svg xmlns="http://www.w3.org/2000/svg" width="20" height="20" viewBox="0 0 20 20">
  <defs>
    <style>
      .cls-1 {
        fill: #cdbe91;
        fill-rule: evenodd;
      }
    </style>
  </defs>
  <path id="Mission" class="cls-1" d="M15.057,18h0.069c-0.034,0-.067,0-0.1,0Zm-4.271-1.986a3.161,3.161,0,0,1,.757-2.143H2.8A2.251,2.251,0,0,0,1,16.014,2.018,2.018,0,0,0,3.049,18h8.564a2.77,2.77,0,0,1-.828-1.972S10.786,16.019,10.786,16.014ZM5.82,2.941V2.963a2.254,2.254,0,0,1,.3-0.022H5.82ZM17.2,5.613c0-.109-0.013-0.38,0-0.486A2.843,2.843,0,0,1,19,2.941H6.117a2.254,2.254,0,0,0-.3.022A2.31,2.31,0,0,0,3.829,5.127v6.8H14.886c0.116-.013.395,0,0.514,0v1.943H15.143a2.024,2.024,0,0,0-2.057,1.943h0A2.343,2.343,0,0,0,15.025,18c0.034,0,.067,0,0.1,0A2.145,2.145,0,0,0,17.3,15.89L17.2,11.2m-2.057,2.672c0.055-.006.2,0,0.257,0"/>
</svg>