<svg width="20" height="20" viewBox="0 0 20 20" fill="none" xmlns="http://www.w3.org/2000/svg">
<path fill-rule="evenodd" clip-rule="evenodd" d="M9.55541 2.19824V2.1895H9.56121L9.55541 2.19824ZM9.55541 8.59961L9.55541 2.19824L8.40681 3.9298V4.85216C8.40681 5.95435 7.96594 7.68885 6.23144 6.61566C4.49694 5.54248 5.12925 2.62457 7.49606 1.0293C4.63036 1.16852 2.68122 3.97621 2.43178 4.41708C2.32943 4.59797 2.47709 4.78277 2.64515 4.99311C2.8867 5.29542 3.17042 5.6505 2.81465 6.12258C2.44817 6.60534 2.12023 6.6022 1.83341 6.59946C1.64806 6.59769 1.47989 6.59608 1.32959 6.72588C0.946722 7.05654 0.917717 8.46038 1.13816 9.50456C1.35859 10.5487 2.542 12.0106 4.10827 13.1186C5.67454 14.2208 4.74058 16.0655 4.74058 16.0655C4.74058 16.0655 6.49828 15.0445 6.41707 13.4782C6.36082 12.4619 5.89484 11.9305 5.52695 11.511C5.32576 11.2815 5.15391 11.0855 5.09444 10.862C4.92621 10.2297 5.28587 10.2587 5.72675 10.4211C6.16763 10.5836 7.1538 11.6335 7.62368 12.5675C8.09356 13.5015 7.81511 15.3752 7.65268 15.758C7.49025 16.1409 7.60047 16.7732 8.23278 17.1039C8.86509 17.4345 9.52641 18.5077 9.52641 18.5077C9.52641 18.5077 9.4974 13.7451 9.4974 12.3413C9.4974 10.9432 9.16675 10.5023 8.98691 10.3747C8.89927 10.3125 8.85021 10.3537 8.7652 10.4249C8.67577 10.4999 8.54655 10.6083 8.29079 10.6648C7.79191 10.775 7.54246 10.4965 7.38004 10.2239C7.21761 9.95124 6.66651 8.43718 6.66651 8.43718C6.66651 8.43718 8.55764 9.7308 8.97531 9.56257C9.39298 9.39434 9.55541 9.1217 9.55541 8.59961ZM10.4447 8.59961L10.4447 2.1895L11.5991 3.9298V4.85216C11.5991 5.95435 12.04 7.68885 13.7745 6.61566C15.509 5.54248 14.8767 2.62457 12.5099 1.0293C15.3698 1.16852 17.3189 3.98781 17.5684 4.42868C17.6707 4.60958 17.523 4.79437 17.355 5.00471C17.1134 5.30703 16.8297 5.6621 17.1855 6.13418C17.552 6.61694 17.8799 6.6138 18.1667 6.61106C18.3521 6.60929 18.5202 6.60768 18.6705 6.73748C19.0534 7.06814 19.0824 8.47198 18.862 9.51616C18.6415 10.5603 17.4581 12.0164 15.8919 13.1186C14.3256 14.2208 15.2596 16.0655 15.2596 16.0655C15.2596 16.0655 13.5018 15.0445 13.5831 13.4782C13.6392 12.4647 14.1052 11.9334 14.4728 11.5143C14.6753 11.2834 14.848 11.0866 14.9057 10.862C15.0739 10.2297 14.7143 10.2587 14.2734 10.4211C13.8325 10.5836 12.8463 11.6335 12.3765 12.5675C11.9066 13.5015 12.185 15.3752 12.3474 15.758C12.5099 16.1409 12.3997 16.7732 11.7673 17.1039C11.135 17.4345 10.4737 18.5077 10.4737 18.5077C10.4737 18.5077 10.5027 13.7393 10.5027 12.3413C10.5027 10.9432 10.8334 10.5023 11.0132 10.3747C11.1009 10.3125 11.1499 10.3537 11.2349 10.4249C11.3244 10.4999 11.4536 10.6083 11.7093 10.6648C12.2082 10.775 12.4577 10.4965 12.6201 10.2239C12.7825 9.95124 13.3336 8.43718 13.3336 8.43718C13.3336 8.43718 11.4425 9.7308 11.0248 9.56257C10.6071 9.39434 10.4447 9.1217 10.4447 8.59961Z" fill="#CDBE91"/>
</svg>